<mxfile host="Electron" modified="2023-08-20T20:37:28.914Z" agent="Mozilla/5.0 (Windows NT 10.0; Win64; x64) AppleWebKit/537.36 (KHTML, like Gecko) draw.io/21.6.5 Chrome/114.0.5735.243 Electron/25.3.1 Safari/537.36" etag="N6uExLZRzeBXgM_t5okz" version="21.6.5" type="device">
  <diagram name="Page-1" id="iYg5_UzhZ4xHybjOpTlR">
    <mxGraphModel dx="1098" dy="820" grid="1" gridSize="10" guides="1" tooltips="1" connect="1" arrows="1" fold="1" page="1" pageScale="1" pageWidth="850" pageHeight="1100" math="0" shadow="0">
      <root>
        <mxCell id="0" />
        <mxCell id="1" parent="0" />
        <mxCell id="a82Yc0MLIS2kWSpy7NCz-1" value="VEXCode" style="rounded=0;whiteSpace=wrap;html=1;" parent="1" vertex="1">
          <mxGeometry x="50" y="61.2" width="120" height="60" as="geometry" />
        </mxCell>
        <mxCell id="a82Yc0MLIS2kWSpy7NCz-6" value="Working" style="edgeStyle=orthogonalEdgeStyle;rounded=0;orthogonalLoop=1;jettySize=auto;html=1;startArrow=classic;startFill=1;exitX=0;exitY=0.5;exitDx=0;exitDy=0;" parent="1" source="5w3W3-4jF1GPis9Y61n5-2" target="a82Yc0MLIS2kWSpy7NCz-1" edge="1">
          <mxGeometry relative="1" as="geometry">
            <mxPoint x="270" y="91.20000000000005" as="sourcePoint" />
          </mxGeometry>
        </mxCell>
        <mxCell id="a82Yc0MLIS2kWSpy7NCz-8" value="Sync" style="edgeStyle=orthogonalEdgeStyle;rounded=0;orthogonalLoop=1;jettySize=auto;html=1;startArrow=classic;startFill=1;entryX=1;entryY=0.5;entryDx=0;entryDy=0;" parent="1" source="a82Yc0MLIS2kWSpy7NCz-7" target="5w3W3-4jF1GPis9Y61n5-2" edge="1">
          <mxGeometry relative="1" as="geometry">
            <mxPoint x="356.25" y="91.20000000000005" as="targetPoint" />
          </mxGeometry>
        </mxCell>
        <mxCell id="a82Yc0MLIS2kWSpy7NCz-7" value="" style="dashed=0;outlineConnect=0;html=1;align=center;labelPosition=center;verticalLabelPosition=bottom;verticalAlign=top;shape=mxgraph.webicons.github;gradientColor=#DFDEDE" parent="1" vertex="1">
          <mxGeometry x="480" y="40.000000000000014" width="102.4" height="102.4" as="geometry" />
        </mxCell>
        <mxCell id="5w3W3-4jF1GPis9Y61n5-2" value="Folder" style="image;html=1;image=img/lib/clip_art/general/Empty_Folder_128x128.png" vertex="1" parent="1">
          <mxGeometry x="270" y="51.19999999999999" width="80" height="80" as="geometry" />
        </mxCell>
      </root>
    </mxGraphModel>
  </diagram>
</mxfile>
